<?xml version="1.0" encoding="iso-8859-1"?>
<!-- Generator: Adobe Illustrator 19.0.0, SVG Export Plug-In . SVG Version: 6.00 Build 0)  -->
<svg version="1.1" id="Layer_1" xmlns="http://www.w3.org/2000/svg" xmlns:xlink="http://www.w3.org/1999/xlink" x="0px" y="0px"
	 viewBox="0 0 512 512" style="enable-background:new 0 0 512 512;" xml:space="preserve">
<g>
	<g>
		<path fill="rgba(116, 185, 255,1.0)" d="M264.536,85.427V31.958l27.579,33.102c1.69,2.023,4.114,3.073,6.573,3.073c1.929,0,3.858-0.649,5.463-1.98
			c3.619-3.022,4.106-8.399,1.093-12.019l-42.68-51.215c-3.252-3.892-9.867-3.892-13.12,0l-42.679,51.215
			c-3.022,3.619-2.527,9.005,1.093,12.019c3.636,3.022,9.014,2.527,12.027-1.093l27.579-33.102v53.46
			C133.74,89.926,42.603,183.795,42.603,298.603C42.603,416.27,138.333,512,256,512s213.397-95.73,213.397-213.397
			C469.397,183.795,378.26,89.926,264.536,85.427z M452.112,290.067h-16.858c-0.154,0-0.282,0.077-0.427,0.085
			c-2.023-43.012-19.189-82.021-46.384-111.923l12.206-12.206C430.918,199.023,450.055,242.368,452.112,290.067z M346.079,400.137
			c1.221,0.606,2.518,0.896,3.816,0.896c2.211,0,4.396-0.862,6.035-2.501c2.603-2.595,3.244-6.564,1.605-9.85l-31.796-63.584
			l91.923-16.227c-5.122,81.228-70.174,146.271-151.401,151.393l16.227-91.923L346.079,400.137z M285.585,350.8l3.389-19.223
			l19.223-3.389l22.612,45.223L285.585,350.8z M357.534,208.523c1.639-3.286,0.999-7.255-1.605-9.85
			c-2.603-2.603-6.564-3.218-9.85-1.605l-63.592,31.796l-16.227-91.923c81.228,5.122,146.271,70.165,151.401,151.393l-91.923-16.218
			L357.534,208.523z M308.197,269.017l-19.223-3.389l-3.389-19.223l45.223-22.612L308.197,269.017z M264.536,119.349V102.49
			c47.707,2.049,91.044,21.195,124.044,51.463l-12.206,12.206c-29.893-27.195-68.91-44.37-111.923-46.384
			C264.459,119.631,264.536,119.503,264.536,119.349z M247.464,102.499v16.858c0,0.154,0.077,0.282,0.085,0.427
			c-43.012,2.023-82.021,19.189-111.923,46.384l-12.206-12.206C156.42,123.685,199.757,104.548,247.464,102.499z M165.921,197.077
			c-3.295-1.63-7.247-1.007-9.85,1.605c-2.603,2.595-3.244,6.564-1.605,9.85l31.796,63.584l-91.923,16.218
			c5.122-81.228,70.174-146.271,151.401-151.393l-16.227,91.923L165.921,197.077z M226.415,246.406l-3.389,19.223l-19.223,3.389
			l-22.612-45.223L226.415,246.406z M154.466,388.682c-1.639,3.286-0.999,7.255,1.605,9.85c1.639,1.639,3.824,2.501,6.035,2.501
			c1.297,0,2.603-0.299,3.816-0.896l63.592-31.796l16.227,91.923c-81.228-5.122-146.271-70.165-151.401-151.393l91.923,16.227
			L154.466,388.682z M203.803,328.188l19.223,3.389l3.389,19.223l-45.223,22.612L203.803,328.188z M111.351,166.023l12.206,12.206
			c-27.195,29.893-44.37,68.91-46.384,111.923c-0.154-0.008-0.273-0.085-0.427-0.085H59.888
			C61.945,242.368,81.082,199.023,111.351,166.023z M59.888,307.139h16.858c0.154,0,0.282-0.077,0.427-0.085
			c2.023,43.012,19.189,82.021,46.384,111.923l-12.206,12.206C81.082,398.182,61.945,354.846,59.888,307.139z M247.464,494.518
			c-47.682-2.066-91.061-21.007-124.044-51.267l12.206-12.206c29.876,27.178,68.868,44.353,111.837,46.401V494.518z
			 M238.792,322.734c-0.615-3.534-3.38-6.299-6.923-6.923l-97.48-17.2l97.48-17.2c3.534-0.623,6.299-3.389,6.923-6.923L256,177.009
			l17.208,97.471c0.615,3.534,3.38,6.299,6.923,6.923l97.48,17.2l-97.48,17.2c-3.534,0.623-6.299,3.389-6.923,6.923L256,420.205
			L238.792,322.734z M264.536,494.518v-17.072c42.961-2.057,81.962-19.231,111.837-46.401l12.206,12.206
			C355.597,473.512,312.217,492.453,264.536,494.518z M400.649,431.182l-12.206-12.206c27.195-29.893,44.37-68.91,46.384-111.923
			c0.154,0.008,0.273,0.085,0.427,0.085h16.858C450.055,354.846,430.918,398.182,400.649,431.182z"/>
	</g>
</g>
</svg>
